<svg xmlns="http://www.w3.org/2000/svg" xmlns:xlink="http://www.w3.org/1999/xlink" width="500" zoomAndPan="magnify" viewBox="0 0 375 374.999991" height="500" preserveAspectRatio="xMidYMid meet" version="1.0"><defs><clipPath id="c5cd953c40"><path d="M 0 91.40625 L 308 91.40625 L 308 281 L 0 281 Z M 0 91.40625 " clip-rule="nonzero"/></clipPath><clipPath id="1857ee56c0"><path d="M 67 91.441406 L 375 91.441406 L 375 280.171875 L 67 280.171875 Z M 67 91.441406 " clip-rule="nonzero"/></clipPath></defs><g clip-path="url(#c5cd953c40)"><path fill="#5271ff" d="M 94.675781 280.0625 C 176.34375 283.566406 226.839844 199.777344 266.722656 199.828125 C 284.171875 199.847656 292.933594 209.285156 294.871094 220.515625 C 297.09375 233.414062 288.472656 248.632812 271.46875 252.734375 C 293.808594 251.347656 308.785156 234.546875 307.945312 213.539062 C 307.28125 196.910156 295.390625 180.96875 270.878906 178.894531 C 217.058594 174.335938 179.640625 247.21875 109.917969 255.097656 C 62.066406 260.503906 22.496094 233.492188 22.375 185.335938 C 22.257812 137.179688 61.199219 98.640625 109.355469 98.523438 C 121.839844 98.492188 133.71875 101.09375 144.46875 105.792969 C 129.902344 96.664062 112.671875 91.394531 94.214844 91.441406 C 42.125 91.570312 0.00390625 133.898438 0.132812 185.984375 C 0.261719 238.070312 42.636719 277.832031 94.675781 280.0625 " fill-opacity="1" fill-rule="nonzero"/></g><g clip-path="url(#1857ee56c0)"><path fill="#0097b2" d="M 280.457031 91.546875 C 198.785156 88.046875 148.292969 171.835938 108.410156 171.785156 C 90.960938 171.761719 82.199219 162.324219 80.261719 151.097656 C 78.039062 138.199219 86.660156 122.980469 103.660156 118.878906 C 81.324219 120.261719 66.34375 137.066406 67.1875 158.070312 C 67.851562 174.699219 79.738281 190.640625 104.253906 192.71875 C 158.070312 197.273438 195.492188 124.390625 265.214844 116.515625 C 313.066406 111.105469 352.636719 138.121094 352.753906 186.273438 C 352.875 234.429688 313.933594 272.972656 265.777344 273.089844 C 253.289062 273.121094 241.414062 270.519531 230.664062 265.820312 C 245.230469 274.949219 262.457031 280.214844 280.917969 280.171875 C 333.003906 280.042969 375.125 237.714844 375 185.628906 C 374.871094 133.539062 332.496094 93.78125 280.457031 91.546875 " fill-opacity="1" fill-rule="nonzero"/></g></svg>