<svg xmlns="http://www.w3.org/2000/svg" xmlns:xlink="http://www.w3.org/1999/xlink" width="500" zoomAndPan="magnify" viewBox="0 0 375 374.999991" height="500" preserveAspectRatio="xMidYMid meet" version="1.0"><defs><clipPath id="38b0708378"><path d="M 63 71 L 374.890625 71 L 374.890625 244 L 63 244 Z M 63 71 " clip-rule="nonzero"/></clipPath><clipPath id="1210f648bd"><path d="M 0 6.179688 L 358 6.179688 L 358 294 L 0 294 Z M 0 6.179688 " clip-rule="nonzero"/></clipPath><clipPath id="a53ab04532"><path d="M 103 301 L 161 301 L 161 359.429688 L 103 359.429688 Z M 103 301 " clip-rule="nonzero"/></clipPath><clipPath id="dd9f9853bd"><path d="M 78 73 L 240 73 L 240 233 L 78 233 Z M 78 73 " clip-rule="nonzero"/></clipPath><clipPath id="b547b30fd3"><path d="M 78.371094 86.300781 L 226.964844 73.230469 L 239.832031 219.539062 L 91.238281 232.605469 Z M 78.371094 86.300781 " clip-rule="nonzero"/></clipPath><clipPath id="476d681339"><path d="M 78.371094 86.300781 L 226.601562 73.261719 L 239.46875 219.570312 L 91.238281 232.605469 Z M 78.371094 86.300781 " clip-rule="nonzero"/></clipPath><clipPath id="8ebafb3455"><path d="M 225.984375 84.328125 L 344.664062 84.328125 L 344.664062 221.542969 L 225.984375 221.542969 Z M 225.984375 84.328125 " clip-rule="nonzero"/></clipPath><clipPath id="115a1820ac"><path d="M 310.144531 84.328125 L 357.375 84.328125 L 357.375 155.308594 L 310.144531 155.308594 Z M 310.144531 84.328125 " clip-rule="nonzero"/></clipPath><clipPath id="a2fa4f55f1"><path d="M 113.582031 314.308594 L 147.585938 314.308594 L 147.585938 345.707031 L 113.582031 345.707031 Z M 113.582031 314.308594 " clip-rule="nonzero"/></clipPath><clipPath id="c7c165eccb"><path d="M 306.199219 314.308594 L 337.5 314.308594 L 337.5 345.707031 L 306.199219 345.707031 Z M 306.199219 314.308594 " clip-rule="nonzero"/></clipPath></defs><g clip-path="url(#38b0708378)"><path fill="#ccd0cf" d="M 218.800781 71.34375 C 264.761719 71.34375 310.71875 71.335938 356.679688 71.3125 C 360.652344 71.3125 364.453125 71.507812 367.96875 73.679688 C 372.34375 76.390625 375.117188 81.902344 374.234375 86.910156 C 371.070312 104.828125 367.785156 122.726562 364.628906 140.65625 C 360.6875 162.921875 356.773438 185.1875 352.878906 207.460938 C 352.5625 209.25 352.097656 211.011719 351.660156 212.78125 C 349.8125 220.269531 345.75 223.972656 338.160156 224.605469 C 323.363281 225.816406 308.550781 226.789062 293.757812 228.019531 C 277.945312 229.335938 262.148438 230.847656 246.335938 232.242188 C 239.597656 232.839844 232.855469 233.386719 226.105469 233.894531 C 209.980469 235.09375 193.894531 236.195312 177.796875 237.4375 C 157.816406 238.972656 137.835938 240.566406 117.859375 242.21875 C 112.9375 242.617188 108.023438 243.414062 103.101562 243.480469 C 96.082031 243.578125 91.148438 239.71875 89.722656 232.765625 C 87.421875 221.574219 85.535156 210.292969 83.492188 199.050781 C 78.886719 173.742188 74.285156 148.429688 69.695312 123.113281 C 67.609375 111.617188 65.503906 100.117188 63.472656 88.609375 C 61.800781 79.136719 67.996094 71.699219 77.800781 71.410156 C 81.976562 71.292969 86.160156 71.382812 90.335938 71.382812 Z M 161.996094 136.960938 L 148.714844 136.960938 C 148.453125 136.960938 148.179688 136.960938 147.9375 136.960938 C 141.335938 136.929688 140.667969 136.128906 141.222656 143.59375 C 141.875 152.402344 142.480469 161.210938 143.210938 170.007812 C 143.535156 173.835938 144.40625 174.503906 148.128906 174.261719 C 154.351562 173.859375 160.566406 173.429688 166.773438 172.976562 C 170.90625 172.664062 175.03125 172.1875 179.167969 171.933594 C 181.855469 171.773438 183.757812 171.359375 182.65625 167.863281 C 182.207031 166.433594 182.496094 164.761719 182.46875 163.199219 C 182.351562 155.675781 182.167969 148.101562 182.15625 140.550781 C 182.15625 137.835938 181.007812 136.890625 178.394531 136.9375 C 172.933594 137.03125 167.472656 136.960938 161.996094 136.960938 Z M 220.253906 88.492188 C 214.011719 88.492188 207.769531 88.558594 201.527344 88.457031 C 198.910156 88.421875 197.699219 89.316406 197.851562 92.066406 C 198.320312 100.875 198.683594 109.6875 199.097656 118.503906 C 199.191406 120.421875 200.265625 121.191406 202.125 121.191406 C 205.246094 121.164062 208.371094 121.191406 211.488281 121.191406 C 220.085938 121.191406 228.6875 121.160156 237.242188 121.191406 C 239.679688 121.191406 241.386719 120.402344 241.445312 117.761719 C 241.644531 108.914062 241.773438 100.074219 241.886719 91.230469 C 241.886719 89.355469 240.929688 88.449219 238.984375 88.457031 C 232.746094 88.515625 226.5 88.492188 220.253906 88.492188 Z M 282.566406 88.492188 C 276.324219 88.492188 270.082031 88.542969 263.835938 88.492188 C 261.074219 88.457031 259.269531 89.335938 259.21875 92.386719 C 259.085938 100.988281 258.984375 109.554688 258.824219 118.136719 C 258.78125 120.53125 260.019531 121.234375 262.203125 121.226562 C 274.171875 121.195312 286.136719 121.226562 298.105469 121.226562 C 299.871094 121.226562 301.144531 120.582031 301.289062 118.632812 C 301.945312 109.839844 302.546875 101.039062 303.234375 92.246094 C 303.4375 89.625 302.464844 88.441406 299.734375 88.484375 C 294.015625 88.566406 288.292969 88.496094 282.566406 88.492188 Z M 159.132812 88.492188 C 152.886719 88.492188 146.640625 88.414062 140.394531 88.515625 C 136.632812 88.578125 136.398438 88.714844 136.632812 92.617188 C 137.128906 100.910156 137.894531 109.1875 138.507812 117.472656 C 138.734375 120.523438 140.546875 121.234375 143.28125 121.234375 C 154.472656 121.160156 165.667969 121.132812 176.859375 121.261719 C 179.855469 121.296875 181.105469 120.304688 181.027344 117.261719 C 180.8125 108.9375 180.632812 100.601562 180.679688 92.28125 C 180.679688 88.964844 179.027344 88.429688 176.316406 88.472656 C 170.585938 88.542969 164.863281 88.484375 159.132812 88.492188 Z M 220.507812 136.964844 C 214.769531 136.964844 209.03125 137.019531 203.308594 136.9375 C 200.882812 136.90625 199.292969 137.382812 199.441406 140.324219 C 199.914062 149.675781 200.28125 159.039062 200.699219 168.398438 C 200.785156 170.242188 201.65625 171.234375 203.652344 171.121094 C 213.003906 170.585938 222.359375 170.121094 231.710938 169.558594 C 233.519531 169.445312 235.292969 168.890625 237.085938 168.726562 C 239.460938 168.511719 240.03125 167.113281 240.046875 165.003906 C 240.125 156.945312 240.144531 148.832031 240.4375 140.753906 C 240.558594 137.40625 238.921875 136.867188 236.167969 136.921875 C 230.945312 137.03125 225.726562 136.953125 220.507812 136.964844 Z M 279.148438 136.964844 C 273.152344 136.964844 267.160156 136.992188 261.160156 136.964844 C 259.054688 136.964844 257.6875 137.503906 257.667969 139.992188 C 257.59375 148.332031 257.425781 156.652344 257.289062 165.015625 C 257.253906 167.382812 258.367188 168.128906 260.710938 167.96875 C 268.769531 167.429688 276.804688 167.089844 284.851562 166.570312 C 287.953125 166.371094 291.035156 165.796875 294.136719 165.570312 C 296.085938 165.425781 296.863281 164.34375 297.128906 162.640625 C 297.445312 160.59375 297.816406 158.550781 298.003906 156.492188 C 298.488281 151.316406 298.820312 146.128906 299.335938 140.964844 C 299.675781 137.5625 299.378906 137.058594 295.574219 136.988281 C 290.105469 136.875 284.644531 136.949219 279.148438 136.949219 Z M 107.011719 136.964844 C 103.351562 136.964844 99.699219 136.910156 96.042969 136.964844 C 90.726562 137.0625 90.425781 137.144531 91.167969 142.191406 C 92.683594 152.476562 94.515625 162.710938 96.3125 172.949219 C 96.632812 174.808594 97.542969 176.453125 99.878906 176.367188 C 107.179688 176.113281 114.496094 176.050781 121.773438 175.492188 C 125.625 175.195312 126.070312 174.417969 125.839844 170.40625 C 125.277344 161.308594 124.507812 152.21875 123.78125 143.128906 C 123.722656 142.363281 123.246094 141.628906 123.195312 140.867188 C 123.003906 138.054688 121.832031 136.703125 118.757812 136.894531 C 114.855469 137.136719 110.925781 136.953125 107.011719 136.949219 Z M 184.082031 204.25 L 183.664062 204.25 C 183.664062 199.816406 183.710938 195.378906 183.664062 190.945312 C 183.625 188.304688 182.25 187.320312 179.578125 187.71875 C 176.492188 188.148438 173.371094 188.304688 170.257812 188.519531 C 163.269531 189.003906 156.242188 189.542969 149.226562 189.867188 C 146.441406 190 145.628906 191.277344 145.835938 193.8125 C 146.527344 202.375 147.152344 210.945312 147.8125 219.511719 C 148.023438 222.199219 150.003906 222.054688 151.839844 221.933594 C 161.453125 221.3125 171.058594 220.570312 180.675781 220.027344 C 183.46875 219.871094 184.171875 218.472656 184.125 216.015625 C 184.023438 212.082031 184.082031 208.164062 184.082031 204.25 Z M 100.03125 88.496094 C 95.09375 88.496094 90.15625 88.582031 85.222656 88.464844 C 82.441406 88.398438 81.460938 89.539062 81.945312 92.226562 C 83.5 100.609375 85.117188 108.988281 86.519531 117.402344 C 87.007812 120.351562 88.5625 121.25 91.300781 121.226562 C 100.140625 121.164062 108.96875 121.140625 117.800781 121.226562 C 120.648438 121.253906 121.378906 119.878906 121.175781 117.378906 C 120.503906 109.113281 119.832031 100.847656 119.257812 92.582031 C 119.058594 89.699219 117.773438 88.40625 114.839844 88.46875 C 109.90625 88.570312 104.964844 88.496094 100.03125 88.496094 Z M 238.851562 200.746094 C 238.851562 195.882812 238.898438 191.4375 238.851562 187.003906 C 238.851562 185.167969 238.011719 184.414062 235.882812 184.574219 C 228.609375 185.113281 221.3125 185.316406 214.03125 185.773438 C 210.664062 185.988281 207.328125 186.613281 203.960938 186.816406 C 201.535156 186.960938 200.949219 188.191406 200.992188 190.351562 C 201.15625 197.664062 201.1875 204.976562 201.355469 212.289062 C 201.386719 213.566406 201.527344 215.007812 202.152344 216.050781 C 202.6875 216.929688 204.003906 217.929688 204.933594 217.886719 C 211.433594 217.59375 217.941406 217.195312 224.414062 216.515625 C 228.988281 216.035156 233.511719 215.066406 238.058594 214.3125 C 238.316406 209.644531 238.597656 204.976562 238.851562 200.746094 Z M 256.050781 199.007812 L 255.839844 199.007812 C 255.839844 202.390625 255.800781 205.785156 255.839844 209.167969 C 255.902344 213.691406 255.945312 213.894531 260.046875 213.566406 C 270.148438 212.75 280.226562 211.710938 290.3125 210.78125 C 292.042969 210.625 293.210938 210.0625 293.359375 208.046875 C 293.898438 200.789062 294.644531 193.535156 295.046875 186.285156 C 295.3125 181.65625 294.683594 181.265625 290.328125 181.679688 C 287.746094 181.917969 285.152344 182.128906 282.558594 182.214844 C 277.085938 182.429688 271.59375 182.300781 266.148438 182.785156 C 256.195312 183.671875 256.207031 183.8125 256.050781 193.535156 C 256.027344 195.339844 256.054688 197.164062 256.054688 198.988281 Z M 339.089844 88.496094 C 334.914062 88.496094 330.742188 88.441406 326.566406 88.496094 C 321.960938 88.566406 321.617188 88.570312 321.058594 92.960938 C 320.015625 101.207031 319.445312 109.507812 318.628906 117.78125 C 318.414062 120.023438 319.257812 121.195312 321.652344 121.183594 C 330 121.152344 338.347656 121.121094 346.695312 121.21875 C 349.566406 121.25 350.910156 120.082031 351.382812 117.238281 C 352.773438 108.792969 354.335938 100.367188 355.886719 91.945312 C 356.300781 89.671875 355.664062 88.453125 353.199219 88.472656 C 348.480469 88.527344 343.765625 88.496094 339.089844 88.496094 Z M 130.273438 219.101562 C 129.707031 211.578125 129.15625 204.054688 128.539062 196.527344 C 128.453125 195.507812 127.894531 194.523438 127.785156 193.503906 C 127.539062 191.195312 126.355469 190.453125 124.09375 190.632812 C 117.605469 191.136719 111.101562 191.492188 104.609375 191.921875 C 100.5625 192.191406 100.046875 192.675781 100.714844 196.648438 C 102.1875 205.359375 103.84375 214.042969 105.382812 222.746094 C 105.761719 224.894531 106.847656 226.03125 109.078125 225.859375 C 114.527344 225.4375 119.976562 224.988281 125.425781 224.574219 C 130.527344 224.179688 130.527344 224.199219 130.273438 219.125 Z M 332.691406 136.953125 C 328.515625 136.953125 324.339844 137.003906 320.171875 136.953125 C 317.871094 136.917969 316.992188 137.980469 316.820312 140.210938 C 316.285156 147.199219 315.585938 154.1875 314.976562 161.207031 C 314.710938 164.242188 315.359375 164.96875 318.203125 164.746094 C 322.351562 164.441406 326.484375 163.996094 330.632812 163.722656 C 333.757812 163.523438 336.929688 163.722656 340.007812 163.285156 C 341.253906 163.101562 343.097656 161.800781 343.324219 160.726562 C 344.726562 154.121094 345.738281 147.433594 346.886719 140.777344 C 347.328125 138.203125 346.480469 136.847656 343.664062 136.929688 C 340.003906 137.035156 336.347656 136.953125 332.691406 136.953125 Z M 315.933594 209.03125 C 321.550781 208.492188 326.722656 207.957031 331.902344 207.535156 C 334.003906 207.359375 335.320312 206.460938 335.664062 204.3125 C 336.972656 196.628906 338.308594 188.957031 339.492188 181.257812 C 339.589844 180.652344 338.59375 179.269531 338.152344 179.292969 C 330.359375 179.648438 322.574219 180.105469 314.796875 180.664062 C 312.828125 180.808594 312.609375 182.496094 312.472656 184.148438 C 311.984375 190.367188 311.398438 196.582031 310.898438 202.804688 C 310.792969 204.101562 310.496094 205.492188 310.898438 206.675781 C 311.210938 207.617188 312.3125 208.519531 313.28125 208.9375 C 314.160156 209.347656 315.332031 209.03125 315.933594 209.03125 Z M 315.933594 209.03125 " fill-opacity="1" fill-rule="nonzero"/></g><g clip-path="url(#1210f648bd)"><path fill="#ccd0cf" d="M 225.085938 293.863281 C 185.113281 293.863281 145.136719 293.777344 105.167969 293.941406 C 97.105469 293.972656 90.453125 291.625 84.886719 285.769531 C 77.066406 277.550781 76.480469 264.519531 82.046875 254.460938 C 84.066406 250.8125 86.347656 247.292969 88.125 243.535156 C 89.007812 241.671875 89.3125 239.71875 89.039062 237.675781 C 83.722656 207.734375 78.195312 177.824219 72.878906 147.886719 C 67.945312 120.238281 63.203125 92.566406 58.339844 64.902344 C 56.726562 55.679688 55.039062 46.472656 53.539062 37.230469 C 52.964844 33.714844 51.390625 31.855469 47.675781 31.25 C 37.40625 29.574219 27.191406 27.53125 16.980469 25.644531 C 13.910156 25.078125 10.808594 24.671875 7.769531 24 C 2.929688 22.925781 -0.0898438 18.902344 0.40625 14.4375 C 0.941406 9.765625 5.242188 6.273438 10.515625 6.914062 C 16.964844 7.722656 23.34375 9.019531 29.746094 10.179688 C 41 12.21875 52.234375 14.378906 63.511719 16.320312 C 66.234375 16.785156 67.546875 17.867188 68.003906 20.6875 C 69.261719 28.378906 70.847656 36.015625 72.242188 43.6875 C 76.378906 66.453125 80.5625 89.210938 84.574219 112 C 89.578125 140.425781 94.378906 168.890625 99.355469 197.324219 C 101.773438 211.140625 104.382812 224.933594 106.949219 238.710938 C 107.625 242.347656 107.539062 245.589844 105.28125 248.921875 C 102.246094 253.453125 100.226562 258.660156 97.21875 263.222656 C 93.640625 268.671875 96.875 277.292969 105.179688 276.554688 C 106.992188 276.390625 108.835938 276.554688 110.664062 276.554688 L 344.226562 276.554688 C 346.3125 276.554688 348.4375 276.386719 350.484375 276.683594 C 351.035156 276.757812 351.578125 276.886719 352.105469 277.070312 C 352.632812 277.25 353.136719 277.480469 353.621094 277.761719 C 354.105469 278.039062 354.558594 278.363281 354.976562 278.730469 C 355.398438 279.097656 355.78125 279.5 356.125 279.941406 C 356.464844 280.378906 356.765625 280.847656 357.015625 281.347656 C 357.269531 281.84375 357.472656 282.363281 357.625 282.898438 C 357.777344 283.4375 357.875 283.984375 357.921875 284.539062 C 357.96875 285.09375 357.960938 285.652344 357.902344 286.207031 C 357.476562 290.917969 354.703125 293.542969 349.699219 293.828125 C 347.617188 293.949219 345.523438 293.871094 343.433594 293.871094 Z M 225.085938 293.863281 " fill-opacity="1" fill-rule="nonzero"/></g><path fill="#ccd0cf" d="M 293.480469 330.191406 C 292.402344 316.757812 305.304688 301.023438 321.925781 301.289062 C 337.757812 301.535156 350.882812 312.640625 351.105469 329.503906 C 351.328125 345.417969 340.359375 358.898438 322.261719 358.898438 C 303.453125 358.894531 292.835938 343.230469 293.480469 330.191406 Z M 322.503906 316.992188 C 314.691406 316.992188 308.972656 322.605469 309.101562 330.1875 C 309.226562 337.460938 315.402344 343.394531 322.863281 343.402344 C 328.964844 343.402344 335.703125 336.273438 335.648438 329.855469 C 335.570312 322.996094 329.457031 317.015625 322.480469 316.992188 Z M 322.503906 316.992188 " fill-opacity="1" fill-rule="nonzero"/><g clip-path="url(#a53ab04532)"><path fill="#ccd0cf" d="M 160.535156 330.277344 C 160.46875 346.027344 147.679688 359.222656 132.546875 359.148438 C 116.042969 359.066406 103.835938 346.3125 103.367188 329.757812 C 102.9375 314.386719 116.804688 301.03125 132.214844 301.148438 C 147 301.28125 161.90625 314.859375 160.535156 330.277344 Z M 144.898438 330.992188 C 145.234375 323.46875 140.277344 317.460938 133.382812 317.019531 C 125.503906 316.542969 119.613281 321.652344 119.128906 329.0625 C 118.628906 336.6875 123.722656 342.730469 131.488281 343.140625 C 132.332031 343.199219 133.171875 343.171875 134.007812 343.058594 C 134.847656 342.949219 135.664062 342.753906 136.460938 342.476562 C 137.261719 342.199219 138.023438 341.847656 138.75 341.417969 C 139.476562 340.984375 140.152344 340.488281 140.777344 339.921875 C 141.40625 339.351562 141.96875 338.730469 142.46875 338.046875 C 142.96875 337.367188 143.394531 336.644531 143.75 335.878906 C 144.101562 335.109375 144.378906 334.316406 144.570312 333.492188 C 144.765625 332.671875 144.875 331.839844 144.898438 330.992188 Z M 144.898438 330.992188 " fill-opacity="1" fill-rule="nonzero"/></g><g clip-path="url(#dd9f9853bd)"><g clip-path="url(#b547b30fd3)"><g clip-path="url(#476d681339)"><path fill="#ccd0cf" d="M 78.371094 86.300781 L 226.394531 73.28125 L 239.261719 219.589844 L 91.238281 232.605469 Z M 78.371094 86.300781 " fill-opacity="1" fill-rule="nonzero"/></g></g></g><g clip-path="url(#8ebafb3455)"><path fill="#ccd0cf" d="M 225.984375 84.328125 L 344.664062 84.328125 L 344.664062 221.550781 L 225.984375 221.550781 Z M 225.984375 84.328125 " fill-opacity="1" fill-rule="nonzero"/></g><g clip-path="url(#115a1820ac)"><path fill="#ccd0cf" d="M 310.144531 84.328125 L 357.375 84.328125 L 357.375 155.359375 L 310.144531 155.359375 Z M 310.144531 84.328125 " fill-opacity="1" fill-rule="nonzero"/></g><g clip-path="url(#a2fa4f55f1)"><path fill="#ccd0cf" d="M 113.582031 314.308594 L 147.554688 314.308594 L 147.554688 345.707031 L 113.582031 345.707031 Z M 113.582031 314.308594 " fill-opacity="1" fill-rule="nonzero"/></g><g clip-path="url(#c7c165eccb)"><path fill="#ccd0cf" d="M 306.199219 314.308594 L 337.5 314.308594 L 337.5 345.734375 L 306.199219 345.734375 Z M 306.199219 314.308594 " fill-opacity="1" fill-rule="nonzero"/></g></svg>